<?xml version="1.0" encoding="utf-8"?>
<!-- Generator: Adobe Illustrator 17.0.2, SVG Export Plug-In . SVG Version: 6.00 Build 0)  -->
<!DOCTYPE svg PUBLIC "-//W3C//DTD SVG 1.1//EN" "http://www.w3.org/Graphics/SVG/1.1/DTD/svg11.dtd">
<svg version="1.1" id="Õ_xBA__x2264__x201E__x5F_1"
	 xmlns="http://www.w3.org/2000/svg" xmlns:xlink="http://www.w3.org/1999/xlink" x="0px" y="0px" width="595.28px"
	 height="502.381px" viewBox="0 0 595.28 502.381" enable-background="new 0 0 595.28 502.381" xml:space="preserve">
<g>
	<path fill="#FFFFFF" d="M328.141,35.647c17.504-15.416,39.674-25.79,63.022-27.99c3.221,25.347-4.62,50.959-19.349,71.574
		c-13.751,20.928-35.944,35.455-60.067,41.452c-6.354,1.421-12.862,1.136-19.303,0.912C289.51,89.318,304.593,57.241,328.141,35.647
		z"/>
	<path fill="#FFFFFF" d="M112.902,177.481c19.039-29.591,50.626-52.092,86.125-55.801c12.753-0.733,25.814-1.046,38.21,2.664
		c16.35,3.755,31.279,11.684,47.274,16.549c6.042,1.891,12.638,1.823,18.615-0.377c22.657-7.42,44.361-19.014,68.531-20.794
		c15.727-0.599,31.655,0.377,46.873,4.621c23.746,7.132,44.494,22.281,59.845,41.609c-18.037,7.64-36.943,15.992-49.049,32.232
		c-7.732,9.352-13.195,21.015-12.774,33.364c0.024,9.641,0.066,19.284,0.09,28.925c-0.379,8.22,7.597,12.862,10.596,19.77
		c-8.486-0.285-9.885-11.484-17.039-14.726c1.245,8.439,7.353,14.881,11.751,21.837c-2.087,9.527-5.798,18.77-6.685,28.545
		c1.999,7.483,10.884,5.441,16.704,5.753c1.422,5.532,3.422,11.35,9.108,13.773c0.312,4.241,0.6,8.642,3.198,12.194
		c4.488,6.556,3.71,16.553,11.619,20.594c11.173,2.532,22.658-1.467,34.011-0.467c-11.44,35.433-31.522,67.377-54.893,96.078
		c-12.839,14.951-29.546,28.944-49.981,30.479c-23.837,1.711-43.94-13.642-66.622-17.816c-22.149-4.134-45.296-0.246-65.578,9.263
		c-15.684,6.598-33.854,13.197-50.538,6.063c-25.258-9.705-41.807-32.432-57.047-53.625
		c-34.209-46.183-52.292-102.941-56.401-159.921C86.645,243.326,94.108,207.27,112.902,177.481z"/>
</g>
</svg>
